<svg viewBox="0 0 520 170" xmlns="http://www.w3.org/2000/svg" role="img" aria-label="Skill Radar logo">

<g transform="translate(24,26) scale(0.58)"><g><defs><linearGradient id="bllkl" x1="100" y1="150" x2="158" y2="55" gradientUnits="userSpaceOnUse"><stop offset="0" stop-color="#D2EEEA"/><stop offset="0.5" stop-color="#10B4A6"/><stop offset="1" stop-color="#0E9C90"/></linearGradient></defs><path d="M119.66,113.77 L120.15,114.98 L120.33,116.04 L120.40,117.07 L120.41,118.09 L120.34,119.10 L120.22,120.10 L120.04,121.10 L119.82,122.09 L119.54,123.08 L119.22,124.06 L118.85,125.03 L118.43,126.00 L117.97,126.95 L117.47,127.89 L116.92,128.82 L116.33,129.73 L115.70,130.63 L115.03,131.51 L114.32,132.38 L113.57,133.22 L112.78,134.04 L111.96,134.84 L111.10,135.62 L110.20,136.37 L109.27,137.09 L108.30,137.79 L107.30,138.46 L106.27,139.10 L105.21,139.71 L104.12,140.28 L102.99,140.82 L101.84,141.33 L100.67,141.80 L99.47,142.24 L98.24,142.64 L96.99,142.99 L95.72,143.31 L94.43,143.59 L93.12,143.83 L91.80,144.03 L90.45,144.18 L89.09,144.29 L87.72,144.35 L86.34,144.38 L84.95,144.35 L83.54,144.28 L82.13,144.16 L80.72,144.00 L79.30,143.79 L77.87,143.53 L76.45,143.23 L75.03,142.87 L73.60,142.47 L72.19,142.02 L70.77,141.52 L69.37,140.98 L67.97,140.38 L66.59,139.74 L65.21,139.05 L63.85,138.31 L62.51,137.53 L61.18,136.70 L59.87,135.82 L58.58,134.89 L57.31,133.92 L56.07,132.90 L54.85,131.84 L53.66,130.74 L52.49,129.59 L51.36,128.40 L50.25,127.17 L49.18,125.89 L48.15,124.58 L47.14,123.23 L46.18,121.84 L45.25,120.41 L44.36,118.95 L43.52,117.45 L42.71,115.92 L41.95,114.35 L41.24,112.76 L40.56,111.13 L39.94,109.48 L39.36,107.80 L38.84,106.10 L38.36,104.37 L37.93,102.62 L37.56,100.85 L37.24,99.06 L36.97,97.25 L36.76,95.42 L36.60,93.58 L36.49,91.73 L36.45,89.87 L36.45,88.00 L36.52,86.12 L36.64,84.24 L36.83,82.35 L37.07,80.46 L37.36,78.57 L37.72,76.68 L38.14,74.80 L38.61,72.92 L39.15,71.05 L39.74,69.18 L40.39,67.33 L41.10,65.50 L41.87,63.67 L42.69,61.87 L43.58,60.08 L44.52,58.32 L45.51,56.57 L46.57,54.85 L47.68,53.16 L48.84,51.50 L50.06,49.86 L51.33,48.26 L52.65,46.69 L54.03,45.16 L55.45,43.66 L56.93,42.21 L58.45,40.79 L60.03,39.41 L61.64,38.08 L63.31,36.80 L65.01,35.56 L66.76,34.37 L68.55,33.23 L70.38,32.14 L72.24,31.10 L74.14,30.12 L76.08,29.19 L78.05,28.32 L80.05,27.51 L82.08,26.76 L84.14,26.07 L86.22,25.44 L88.32,24.87 L90.45,24.36 L92.60,23.92 L94.77,23.54 L96.95,23.23 L99.14,22.99 L101.35,22.81 L103.56,22.70 L105.79,22.66 L108.01,22.68 L110.24,22.78 L112.47,22.95 L114.70,23.18 L116.92,23.49 L119.14,23.86 L121.35,24.31 L123.54,24.82 L125.72,25.41 L127.89,26.06 L130.03,26.79 L132.16,27.59 L134.26,28.45 L136.33,29.38 L138.37,30.39 L140.38,31.46 L142.35,32.59 L144.28,33.80 L146.17,35.07 L148.02,36.41 L149.82,37.81 L151.56,39.27 L153.25,40.81 L154.87,42.40 L156.43,44.06 L157.91,45.78 L159.32,47.57 L160.63,49.43 L161.84,51.35 L162.92,53.35 L163.84,55.44 L164.53,57.64 L164.83,60.05 L162.35,64.00 L162.35,64.00 L157.31,64.69 L154.96,63.93 L152.93,63.05 L151.04,62.15 L149.24,61.26 L147.49,60.38 L145.78,59.54 L144.09,58.72 L142.43,57.94 L140.77,57.20 L139.13,56.50 L137.50,55.83 L135.87,55.21 L134.25,54.63 L132.64,54.10 L131.03,53.60 L129.43,53.15 L127.84,52.74 L126.25,52.38 L124.67,52.05 L123.09,51.77 L121.52,51.53 L119.97,51.33 L118.42,51.18 L116.88,51.06 L115.35,50.99 L113.83,50.96 L112.33,50.97 L110.84,51.01 L109.36,51.10 L107.89,51.22 L106.45,51.39 L105.02,51.59 L103.60,51.83 L102.21,52.10 L100.83,52.41 L99.47,52.75 L98.14,53.13 L96.82,53.55 L95.52,53.99 L94.25,54.47 L93.00,54.98 L91.78,55.51 L90.58,56.08 L89.40,56.68 L88.25,57.30 L87.12,57.96 L86.03,58.63 L84.95,59.34 L83.91,60.07 L82.89,60.82 L81.91,61.59 L80.95,62.39 L80.02,63.20 L79.12,64.04 L78.25,64.89 L77.41,65.77 L76.60,66.66 L75.83,67.56 L75.08,68.48 L74.36,69.42 L73.68,70.37 L73.03,71.33 L72.41,72.30 L71.82,73.28 L71.26,74.27 L70.73,75.27 L70.24,76.28 L69.78,77.29 L69.35,78.31 L68.95,79.34 L68.58,80.37 L68.24,81.40 L67.94,82.43 L67.67,83.47 L67.42,84.50 L67.21,85.53 L67.03,86.57 L66.88,87.60 L66.76,88.63 L66.67,89.65 L66.61,90.67 L66.57,91.68 L66.57,92.69 L66.59,93.69 L66.64,94.68 L66.72,95.67 L66.83,96.64 L66.96,97.61 L67.12,98.56 L67.31,99.51 L67.52,100.44 L67.75,101.36 L68.01,102.27 L68.29,103.16 L68.59,104.04 L68.92,104.91 L69.27,105.76 L69.64,106.59 L70.03,107.41 L70.44,108.21 L70.87,109.00 L71.32,109.77 L71.79,110.52 L72.28,111.25 L72.78,111.96 L73.30,112.66 L73.83,113.33 L74.38,113.99 L74.95,114.63 L75.53,115.24 L76.12,115.84 L76.72,116.42 L77.34,116.97 L77.97,117.51 L78.60,118.03 L79.25,118.52 L79.91,118.99 L80.57,119.45 L81.25,119.88 L81.93,120.29 L82.62,120.68 L83.31,121.04 L84.01,121.39 L84.72,121.72 L85.42,122.02 L86.14,122.30 L86.85,122.57 L87.57,122.81 L88.29,123.03 L89.02,123.23 L89.74,123.41 L90.46,123.57 L91.19,123.71 L91.91,123.83 L92.63,123.93 L93.35,124.01 L94.07,124.07 L94.79,124.11 L95.50,124.13 L96.21,124.14 L96.92,124.12 L97.62,124.09 L98.32,124.04 L99.01,123.97 L99.70,123.89 L100.38,123.79 L101.06,123.67 L101.73,123.54 L102.39,123.39 L103.05,123.22 L103.70,123.04 L104.34,122.84 L104.97,122.63 L105.60,122.41 L106.22,122.17 L106.83,121.92 L107.43,121.66 L108.03,121.38 L108.62,121.09 L109.20,120.79 L109.77,120.48 L110.33,120.15 L110.88,119.82 L111.43,119.47 L111.97,119.12 L112.50,118.75 L113.03,118.38 L113.55,118.00 L114.07,117.61 L114.57,117.22 L115.08,116.81 L115.59,116.41 L116.09,116.00 L116.60,115.58 L117.11,115.17 L117.64,114.76 L118.19,114.35 L118.80,113.98 L119.66,113.77 Z" fill="url(#bllkl)"/><circle cx="100" cy="100" r="3" fill="#10B4A6"/><circle cx="162.4" cy="64.0" r="14.0" fill="#FFB020" opacity="0.22"/><circle cx="162.4" cy="64.0" r="6.5" fill="#FFB020"/><circle cx="162.4" cy="64.0" r="2.6" fill="#FFF1D6"/></g></g>
<text x="168" y="82" font-family="'Space Grotesk','Inter',system-ui,sans-serif" font-size="50" font-weight="500" fill="#0B5A52" letter-spacing="-1">Skill<tspan font-weight="700" fill="#10B4A6" dx="6">Radar</tspan></text>
<text x="170" y="116" font-family="'Noto Sans CJK SC','PingFang SC','Microsoft YaHei',sans-serif" font-size="21" font-weight="500" fill="#5B7C7A" letter-spacing="3">追踪 · 收录 · 演进地图</text></svg>